HIERARCHY
ROOT Hips
{
	OFFSET	0.00	0.00	0.00
	CHANNELS 6 Xposition Yposition Zposition Zrotation Xrotation Yrotation
	JOINT LeftUpLeg
	{
		OFFSET	 0.126116	-0.014019	-0.065224
		CHANNELS 3 Zrotation Xrotation Yrotation
		JOINT LeftLeg
		{
			OFFSET	 0.000000	 0.000000	 0.569914
			CHANNELS 3 Zrotation Xrotation Yrotation
			JOINT LeftFoot
			{
				OFFSET	 0.000000	 0.000000	 0.544423
				CHANNELS 3 Zrotation Xrotation Yrotation
				JOINT LeftToeBase
				{
					OFFSET	 0.000000	 0.000000	 0.207117
					CHANNELS 3 Zrotation Xrotation Yrotation
					End Site
					{
						OFFSET	 0.000000	 0.000000	 0.207117
					}
				}
			}
		}
	}
	JOINT RightUpLeg
	{
		OFFSET	-0.124023	-0.008373	-0.065224
		CHANNELS 3 Zrotation Xrotation Yrotation
		JOINT RightLeg
		{
			OFFSET	 0.000000	 0.000000	 0.570047
			CHANNELS 3 Zrotation Xrotation Yrotation
			JOINT RightFoot
			{
				OFFSET	 0.000000	 0.000000	 0.544354
				CHANNELS 3 Zrotation Xrotation Yrotation
				JOINT RightToeBase
				{
					OFFSET	 0.000000	 0.000000	 0.207540
					CHANNELS 3 Zrotation Xrotation Yrotation
					End Site
					{
						OFFSET	 0.000000	 0.000000	 0.207540
					}
				}
			}
		}
	}
	JOINT Spine
	{
		OFFSET	 0.000184	-0.007763	 0.117403
		CHANNELS 3 Zrotation Xrotation Yrotation
		JOINT Spine1
		{
			OFFSET	 0.000000	 0.000000	 0.137269
			CHANNELS 3 Zrotation Xrotation Yrotation
			JOINT Spine2
			{
				OFFSET	 0.000000	 0.000000	 0.156879
				CHANNELS 3 Zrotation Xrotation Yrotation
				JOINT LeftShoulder
				{
					OFFSET	 0.080501	-0.002496	 0.160144
					CHANNELS 3 Zrotation Xrotation Yrotation
					JOINT LeftArm
					{
						OFFSET	 0.000000	 0.000000	 0.164363
						CHANNELS 3 Zrotation Xrotation Yrotation
						JOINT LeftForeArm
						{
							OFFSET	 0.000000	 0.000000	 0.364576
							CHANNELS 3 Zrotation Xrotation Yrotation
							JOINT LeftHand
							{
								OFFSET	 0.000000	 0.000000	 0.360812
								CHANNELS 3 Zrotation Xrotation Yrotation
								JOINT LeftHandIndex1
								{
									OFFSET	 0.000000	 0.000000	 0.086006
									CHANNELS 3 Zrotation Xrotation Yrotation
									JOINT LeftHandIndex2
									{
										OFFSET	 0.000000	 0.000000	 0.047237
										CHANNELS 3 Zrotation Xrotation Yrotation
										JOINT LeftHandIndex3
										{
											OFFSET	-0.004284	-0.000551	 0.038165
											CHANNELS 3 Zrotation Xrotation Yrotation
											End Site
											{
												OFFSET	-0.004284	-0.000551	 0.038165
											}
										}
									}
								}
							}
						}
					}
				}
				JOINT Neck
				{
					OFFSET	 0.000000	 0.000000	 0.176489
					CHANNELS 3 Zrotation Xrotation Yrotation
					JOINT Head
					{
						OFFSET	 0.000000	-0.001747	 0.077940
						CHANNELS 3 Zrotation Xrotation Yrotation
						End Site
						{
							OFFSET	 0.000000	-0.001747	 0.077940
						}
					}
				}
				JOINT RightShoulder
				{
					OFFSET	-0.080363	 0.000306	 0.159706
					CHANNELS 3 Zrotation Xrotation Yrotation
					JOINT RightArm
					{
						OFFSET	 0.000000	 0.000000	 0.164196
						CHANNELS 3 Zrotation Xrotation Yrotation
						JOINT RightForeArm
						{
							OFFSET	 0.000000	 0.000000	 0.365611
							CHANNELS 3 Zrotation Xrotation Yrotation
							JOINT RightHand
							{
								OFFSET	 0.000000	 0.000000	 0.360648
								CHANNELS 3 Zrotation Xrotation Yrotation
								JOINT RightHandIndex1
								{
									OFFSET	 0.000000	 0.000000	 0.069977
									CHANNELS 3 Zrotation Xrotation Yrotation
									JOINT RightHandIndex2
									{
										OFFSET	 0.000000	 0.000000	 0.052305
										CHANNELS 3 Zrotation Xrotation Yrotation
										JOINT RightHandIndex3
										{
											OFFSET	 0.009002	-0.000782	 0.042196
											CHANNELS 3 Zrotation Xrotation Yrotation
											End Site
											{
												OFFSET	 0.009002	-0.000782	 0.042196
											}
										}
									}
								}
							}
						}
					}
				}
			}
		}
	}
}
MOTION
Frames:    5
Frame Time: 0.03333334
-0.731000	-0.005895	 1.272717	 179.605900	 0.404908	 1.729392	-7.649364	-3.124388	 178.088600	 9.315106	-14.422740	 1.967173	-37.695280	 71.962260	 16.342690	-2.385833	 28.452760	 0.000004	 2.431409	-1.747457	 179.322500	-9.184632	-10.151130	-1.592502	 28.830790	 69.976870	-13.574990	 2.384659	 28.388700	-0.000001	-9.808522	 3.542376	-0.550828	-4.492540	-0.034815	-10.510340	 13.922350	 5.416888	 13.310610	-91.776220	 78.527420	-180.000000	-10.538670	-15.652160	-11.283780	-7.627867	-0.091961	-0.483720	 10.006590	-9.026222	-5.975120	-4.130354	 21.526190	 0.991307	-5.167926	 0.731697	 3.519349	-1.378229	 35.397820	-2.634230	-0.000002	-3.783157	-0.089647	 3.118926	-4.986818	 0.135847	 89.782080	 78.203850	-180.000000	 6.734299	-6.761943	 6.235628	 5.234252	-0.056200	 0.481110	 4.940060	-16.198670	 58.155410	 5.716295	 19.173350	-3.684826	 5.027458	 0.246833	-9.377971	-2.350882	 35.473990	 5.254307
-0.727992	-0.005962	 1.272494	-177.545800	-5.338337	 1.107359	 8.739514	 3.251882	 176.459100	-4.079973	-11.782950	-1.135422	-9.999065	 72.639940	 0.374922	-2.385833	 28.452760	 0.000004	-8.399576	 4.738982	-178.748800	 1.958548	-10.099580	 0.382283	 6.467016	 71.754700	-1.018324	 2.384659	 28.388700	-0.000001	-8.691437	 6.343111	-1.408078	-3.714370	 9.734813	-1.395433	 9.988985	-6.291288	 6.392242	-91.776210	 78.527400	-180.000000	-34.552490	-6.819621	-15.199920	-13.460320	-0.042858	-0.504690	 0.091680	-17.615960	-2.351191	-4.130354	 21.526190	 0.991307	-5.167926	 0.731697	 3.519349	-1.378229	 35.397820	-2.634230	-7.991395	 0.927807	 3.405321	-1.633330	-17.314110	-3.369792	 89.782120	 78.203900	 180.000000	-4.089677	-9.102939	 5.018568	 6.955749	-0.041899	 0.491990	-6.654692	 50.021810	 85.428700	 5.716295	 19.173350	-3.684826	 5.027458	 0.246833	-9.377971	-2.350882	 35.473990	 5.254307
-0.727932	-0.005966	 1.272477	-177.490400	-5.432468	 1.098900	 9.064934	 3.351072	 176.391200	-4.280890	-11.733410	-1.171965	-9.413098	 72.402280	-0.023182	-2.385833	 28.452760	 0.000004	-8.581356	 4.865362	-178.698300	 2.104349	-10.062070	 0.406387	 6.246151	 71.477360	-0.939612	 2.384659	 28.388700	-0.000001	-8.700948	 6.410005	-1.443707	-3.714454	 9.845917	-1.214660	 9.903236	-6.452134	 6.245546	-91.776190	 78.527380	-180.000000	-34.891420	-6.621708	-15.191010	-13.559920	-0.042159	-0.507071	-0.125963	-17.809490	-2.350514	-4.130354	 21.526190	 0.991307	-5.167926	 0.731697	 3.519349	-1.378229	 35.397820	-2.634230	-8.110937	 0.984651	 3.497784	-1.734408	-17.453900	-3.490790	 89.782130	 78.203870	 180.000000	-4.077735	-9.082514	 5.069413	 7.085322	-0.040879	 0.494156	-7.527517	 51.190120	 86.525720	 5.716295	 19.173350	-3.684826	 5.027458	 0.246833	-9.377971	-2.350882	 35.473990	 5.254307
-0.727726	-0.005975	 1.272411	-177.298800	-5.753350	 1.068761	 10.185230	 3.641900	 176.149000	-4.975352	-11.657960	-1.306399	-7.474437	 71.633640	-1.317145	-2.385833	 28.452760	 0.000004	-9.211940	 5.302880	-178.516700	 2.607151	-9.928363	 0.487909	 5.490482	 70.522830	-0.673169	 2.384659	 28.388700	-0.000001	-8.742723	 6.635561	-1.563861	-3.719946	 10.222330	-0.599579	 9.601606	-7.000229	 5.741111	-91.776210	 78.527420	-180.000000	-36.016840	-5.912556	-15.127180	-13.903820	-0.039327	-0.513037	-0.875836	-18.488680	-2.356184	-4.130354	 21.526190	 0.991307	-5.167926	 0.731697	 3.519349	-1.378229	 35.397820	-2.634230	-8.524860	 1.178291	 3.819407	-2.086654	-17.934000	-3.915876	 89.782100	 78.203820	 180.000000	-3.918289	-8.966480	 5.296004	 7.532954	-0.037166	 0.499919	-10.984950	 55.249050	 90.649800	 5.716295	 19.173350	-3.684826	 5.027458	 0.246833	-9.377971	-2.350882	 35.473990	 5.254307
-0.727305	-0.005996	 1.272233	-176.902100	-6.419320	 1.005749	 12.490430	 4.055619	 175.598300	-6.419115	-11.882730	-1.633002	-3.763384	 70.262340	-3.715508	-2.385833	 28.452760	 0.000004	-10.532450	 6.189984	-178.103800	 3.646245	-9.736731	 0.654908	 3.976932	 68.622000	-0.169024	 2.384659	 28.388700	-0.000001	-8.878526	 7.120196	-1.797859	-3.759619	 10.937280	 0.623407	 8.950965	-8.093619	 4.708903	-91.776130	 78.527420	 180.000000	-38.144800	-4.273242	-14.800970	-14.621280	-0.033475	-0.529758	-2.419748	-19.947670	-2.409919	-4.130354	 21.526190	 0.991307	-5.167926	 0.731697	 3.519349	-1.378229	 35.397820	-2.634230	-9.388423	 1.566440	 4.497211	-2.833403	-18.915680	-4.832853	 89.782100	 78.203870	 180.000000	-2.985666	-8.447987	 6.038984	 8.462272	-0.029669	 0.515787	-21.216250	 63.608490	 101.694200	 5.716295	 19.173350	-3.684826	 5.027458	 0.246833	-9.377971	-2.350882	 35.473990	 5.254307
